<?xml version="1.0" encoding="utf-8"?>
<!-- Generator: Adobe Illustrator 26.1.0, SVG Export Plug-In . SVG Version: 6.00 Build 0)  -->
<svg version="1.1" xmlns="http://www.w3.org/2000/svg" xmlns:xlink="http://www.w3.org/1999/xlink" x="0px" y="0px"
	 viewBox="0 0 467.68 468.59" style="enable-background:new 0 0 467.68 468.59;" xml:space="preserve">
<style type="text/css">
	.st0{clip-path:url(#SVGID_00000080929329084050027040000018001179364078815617_);fill:#9B3C32;}
	.st1{clip-path:url(#SVGID_00000080929329084050027040000018001179364078815617_);fill:#D85643;}
	.st2{clip-path:url(#SVGID_00000080929329084050027040000018001179364078815617_);}
	.st3{fill:#4A7C4A;}
	.st4{fill:#54A056;}
	.st5{fill:none;}
	.st6{fill:#3D6199;}
	.st7{fill:#4A80E7;}
	.st8{fill:none;stroke:#FFFFFF;stroke-width:8;stroke-miterlimit:10;}
	.st9{fill:none;stroke:#FFFFFF;stroke-width:8;stroke-linecap:round;stroke-linejoin:round;stroke-miterlimit:10;}
</style>
<g id="레이어_1">
	<g>
		<g>
			<defs>
				<circle id="SVGID_1_" cx="233.84" cy="234.78" r="122.45"/>
			</defs>
			<clipPath id="SVGID_00000089568601498271670660000008582374349249872550_">
				<use xlink:href="#SVGID_1_"  style="overflow:visible;"/>
			</clipPath>
			
				<circle style="clip-path:url(#SVGID_00000089568601498271670660000008582374349249872550_);fill:#9B3C32;" cx="233.84" cy="234.78" r="122.45"/>
			
				<circle style="clip-path:url(#SVGID_00000089568601498271670660000008582374349249872550_);fill:#D85643;" cx="233.84" cy="246.17" r="122.45"/>
			<g style="clip-path:url(#SVGID_00000089568601498271670660000008582374349249872550_);">
				<path class="st3" d="M355.43,224.61c-4.85-28.97-30.02-51.05-60.37-51.05c-33.81,0-61.22,27.41-61.22,61.22
					c0-33.81-27.41-61.22-61.22-61.22c-33.81,0-61.22,27.41-61.22,61.22c0,10.76,1.39,21.19,4,31.13
					c16.31-7.78,40.26-12.54,72.23-2.31c10.71,3.43,22.31,8.53,34.84,15.77c64.91,37.54,106.11,14.32,129.83-13.47
					c2.6-9.94,3.99-20.36,3.99-31.11C356.29,231.32,355.98,227.92,355.43,224.61z"/>
				<path class="st4" d="M355.43,234.54c-4.85-28.97-30.02-51.05-60.37-51.05c-33.81,0-61.22,27.41-61.22,61.22
					c0-33.81-27.41-61.22-61.22-61.22c-33.81,0-61.22,27.41-61.22,61.22c0,10.76,1.39,21.19,4,31.13
					c16.31-7.78,40.26-12.54,72.23-2.31c10.71,3.43,22.31,8.53,34.84,15.77c64.91,37.54,106.11,14.32,129.83-13.47
					c2.6-9.94,3.99-20.36,3.99-31.11C356.29,241.24,355.98,237.85,355.43,234.54z"/>
				<path class="st5" d="M355.43,224.61c-4.85-28.97-30.02-51.05-60.37-51.05c-33.81,0-61.22,27.41-61.22,61.22
					c0-33.81-27.41-61.22-61.22-61.22c-33.81,0-61.22,27.41-61.22,61.22c0,10.76,1.39,21.19,4,31.13
					c16.31-7.78,40.26-12.54,72.23-2.31c10.71,3.43,22.31,8.53,34.84,15.77c64.91,37.54,106.11,14.32,129.83-13.47
					c2.6-9.94,3.99-20.36,3.99-31.11C356.29,231.32,355.98,227.92,355.43,224.61z"/>
			</g>
			<g style="clip-path:url(#SVGID_00000089568601498271670660000008582374349249872550_);">
				<path class="st6" d="M221.43,279.37c-12.52-7.24-24.13-12.34-34.84-15.77c-31.96-10.22-55.9-5.47-72.21,2.3
					c11.72,44.74,48.1,79.5,93.75,88.84c7.97,1.63,16.22,2.49,24.68,2.49c29.59,0,56.72-10.49,77.89-27.96
					c1.51-1.25,2.99-2.53,4.44-3.85c0,0,0,0,0,0c0,0,0,0,0,0c1.45-1.32,2.87-2.67,4.25-4.05c15.1-15.1,26.25-34.14,31.84-55.43
					C327.5,293.71,286.31,316.89,221.43,279.37z"/>
				<path class="st6" d="M238.45,357.23L238.45,357.23c-8.45,0-16.71-0.86-24.68-2.49C221.74,356.37,230,357.23,238.45,357.23z"/>
				<polygon class="st6" points="320.78,325.42 320.78,325.42 320.78,325.42 				"/>
				<path class="st6" d="M320.78,325.42c1.45-1.32,2.87-2.67,4.25-4.05C323.65,322.75,322.23,324.1,320.78,325.42
					C320.78,325.42,320.78,325.42,320.78,325.42z"/>
				<polygon class="st6" points="320.78,325.42 320.78,325.42 320.78,325.42 				"/>
				<polygon class="st6" points="320.78,325.42 320.78,325.42 320.78,325.42 				"/>
				<path class="st6" d="M316.34,329.27c1.51-1.25,2.99-2.53,4.44-3.85c0,0,0,0,0,0C319.33,326.74,317.85,328.02,316.34,329.27z"/>
				<polygon class="st6" points="320.78,325.42 320.78,325.42 320.78,325.42 				"/>
				<path class="st6" d="M120,265.91c0.01,0,0.01-0.01,0.02-0.01c-0.18-0.68-0.36-1.35-0.52-2.03
					C119.66,264.55,119.82,265.23,120,265.91z"/>
			</g>
			<g style="clip-path:url(#SVGID_00000089568601498271670660000008582374349249872550_);">
				<path class="st7" d="M221.43,289.51c-12.52-7.24-24.13-12.34-34.84-15.77c-31.96-10.22-55.9-5.47-72.21,2.3
					c11.72,44.74,48.1,79.5,93.75,88.84c7.97,1.63,16.22,2.49,24.68,2.49c29.59,0,56.72-10.49,77.89-27.96
					c1.51-1.25,2.99-2.53,4.44-3.85c0,0,0,0,0,0c0,0,0,0,0,0c1.45-1.32,2.87-2.67,4.25-4.05c15.1-15.1,26.25-34.14,31.84-55.43
					C327.5,303.85,286.31,327.04,221.43,289.51z"/>
				<path class="st7" d="M238.45,367.37L238.45,367.37c-8.45,0-16.71-0.86-24.68-2.49C221.74,366.51,230,367.37,238.45,367.37z"/>
				<polygon class="st7" points="320.78,335.56 320.78,335.56 320.78,335.56 				"/>
				<path class="st7" d="M320.78,335.56c1.45-1.32,2.87-2.67,4.25-4.05C323.65,332.89,322.23,334.24,320.78,335.56
					C320.78,335.56,320.78,335.56,320.78,335.56z"/>
				<polygon class="st7" points="320.78,335.56 320.78,335.56 320.78,335.56 				"/>
				<polygon class="st7" points="320.78,335.56 320.78,335.56 320.78,335.56 				"/>
				<path class="st7" d="M316.34,339.41c1.51-1.25,2.99-2.53,4.44-3.85c0,0,0,0,0,0C319.33,336.88,317.85,338.16,316.34,339.41z"/>
				<polygon class="st7" points="320.78,335.56 320.78,335.56 320.78,335.56 				"/>
				<path class="st7" d="M120,276.05c0.01,0,0.01-0.01,0.02-0.01c-0.18-0.68-0.36-1.35-0.52-2.03
					C119.66,274.69,119.82,275.37,120,276.05z"/>
			</g>
		</g>
		<path class="st8" d="M233.84,112.34c-67.62,0-122.45,54.82-122.45,122.45c0,1.23,0.02,2.45,0.06,3.67
			c0.01,0.36,0.03,0.72,0.04,1.08c0.03,0.89,0.08,1.77,0.13,2.65c0.02,0.37,0.05,0.74,0.07,1.12c0.07,0.97,0.15,1.94,0.24,2.91
			c0.02,0.23,0.04,0.47,0.06,0.7c0.12,1.25,0.26,2.49,0.42,3.73c0,0.03,0.01,0.07,0.01,0.1c0.15,1.18,0.33,2.36,0.52,3.53
			c0.04,0.22,0.07,0.44,0.11,0.67c0.17,1.04,0.36,2.07,0.55,3.1c0.04,0.18,0.07,0.37,0.11,0.55c0.71,3.59,1.57,7.12,2.58,10.58
			c0.05,0.16,0.09,0.31,0.14,0.47c0.28,0.93,0.56,1.85,0.86,2.78c0.07,0.2,0.13,0.4,0.2,0.61c0.3,0.9,0.6,1.8,0.92,2.7
			c0.06,0.18,0.12,0.36,0.19,0.53c0.65,1.8,1.34,3.59,2.07,5.35c0.06,0.15,0.12,0.31,0.19,0.46c0.28,0.67,0.57,1.32,0.86,1.98
			c0.1,0.22,0.19,0.45,0.29,0.67c0.27,0.61,0.56,1.22,0.84,1.83c0.12,0.26,0.24,0.53,0.37,0.79c0.27,0.58,0.56,1.15,0.84,1.72
			c0.14,0.29,0.29,0.58,0.43,0.87c0.28,0.55,0.56,1.09,0.84,1.63c0.16,0.31,0.33,0.62,0.49,0.93c0.28,0.52,0.56,1.03,0.84,1.55
			c0.18,0.33,0.36,0.66,0.55,0.98c0.28,0.49,0.56,0.99,0.85,1.48c0.2,0.34,0.4,0.68,0.6,1.02c0.28,0.47,0.57,0.95,0.86,1.41
			c0.22,0.35,0.44,0.7,0.66,1.05c0.28,0.45,0.57,0.9,0.86,1.35c0.24,0.36,0.48,0.72,0.71,1.09c0.28,0.43,0.57,0.86,0.86,1.28
			c0.26,0.38,0.52,0.75,0.78,1.12c0.28,0.4,0.56,0.81,0.85,1.21c0.28,0.39,0.56,0.77,0.84,1.16c0.28,0.38,0.56,0.76,0.84,1.14
			c0.3,0.4,0.61,0.8,0.92,1.2c0.27,0.35,0.54,0.71,0.82,1.06c0.34,0.42,0.68,0.84,1.02,1.26c0.26,0.32,0.51,0.64,0.78,0.96
			c0.39,0.48,0.79,0.94,1.2,1.41c0.22,0.25,0.43,0.51,0.65,0.76c0.62,0.72,1.26,1.43,1.9,2.14c1.32,1.45,2.67,2.87,4.05,4.25
			c1.38,1.38,2.8,2.74,4.25,4.05c0.72,0.66,1.46,1.31,2.2,1.95c1.15,1,2.33,1.97,3.51,2.92c2.63,2.12,5.35,4.13,8.16,6.03
			c1.63,1.1,3.29,2.16,4.97,3.18c1.31,0.8,2.64,1.56,3.99,2.31c0.79,0.44,1.58,0.87,2.38,1.29c4.08,2.16,8.29,4.09,12.63,5.78
			c0.33,0.13,0.67,0.25,1,0.38c0.75,0.28,1.49,0.56,2.25,0.83c0.38,0.13,0.75,0.27,1.13,0.4c0.76,0.26,1.52,0.52,2.28,0.76
			c0.34,0.11,0.68,0.22,1.02,0.33c2.37,0.75,4.77,1.42,7.2,2.02c0.33,0.08,0.65,0.16,0.98,0.24c2.3,0.55,4.62,1.04,6.96,1.46
			c7.04,1.26,14.28,1.91,21.67,1.91h0c0,0,0,0,0,0c1.3,0,2.6-0.03,3.89-0.07c0.37-0.01,0.74-0.03,1.11-0.04
			c1-0.04,1.99-0.09,2.98-0.16c0.33-0.02,0.66-0.04,0.98-0.06c1.27-0.09,2.53-0.2,3.79-0.33c0.24-0.02,0.47-0.05,0.71-0.08
			c1.04-0.11,2.08-0.24,3.12-0.38c0.37-0.05,0.74-0.1,1.11-0.16c1.03-0.15,2.06-0.31,3.09-0.49c0.23-0.04,0.46-0.07,0.69-0.11
			c1.23-0.22,2.45-0.46,3.67-0.71c0.31-0.07,0.63-0.14,0.94-0.2c0.94-0.2,1.89-0.42,2.82-0.65c0.35-0.08,0.69-0.17,1.04-0.25
			c1.2-0.3,2.4-0.62,3.6-0.95c0,0,0,0,0.01,0c1.19-0.34,2.37-0.7,3.55-1.07c0.34-0.11,0.67-0.22,1.01-0.33
			c0.91-0.3,1.81-0.6,2.7-0.92c0.3-0.1,0.6-0.21,0.89-0.31c1.15-0.42,2.29-0.85,3.42-1.29c0.21-0.08,0.42-0.17,0.63-0.26
			c0.94-0.38,1.87-0.77,2.8-1.17c0.33-0.14,0.66-0.29,0.99-0.43c0.92-0.41,1.84-0.83,2.75-1.26c0.2-0.1,0.41-0.19,0.61-0.28
			c1.09-0.52,2.18-1.07,3.25-1.62c0.28-0.14,0.55-0.29,0.83-0.44c0.83-0.44,1.66-0.88,2.48-1.34c0.3-0.17,0.61-0.34,0.91-0.51
			c1.06-0.6,2.1-1.21,3.14-1.84c1.68-1.02,3.34-2.08,4.97-3.18c1.63-1.1,3.23-2.24,4.8-3.41c3.14-2.35,6.17-4.85,9.07-7.48
			c0,0,0,0,0.01,0c2.9-2.63,5.67-5.41,8.3-8.3c0.66-0.72,1.31-1.46,1.95-2.2c2.14-2.47,4.17-5.03,6.11-7.66
			c0.19-0.26,0.39-0.53,0.58-0.79c0.77-1.06,1.52-2.13,2.26-3.21c1.1-1.63,2.16-3.29,3.18-4.97c0.67-1.11,1.32-2.23,1.96-3.36
			c0.16-0.28,0.32-0.57,0.48-0.85c0.61-1.1,1.21-2.21,1.79-3.33c0.02-0.04,0.04-0.07,0.06-0.11c0.61-1.18,1.19-2.38,1.76-3.59
			c0.11-0.24,0.23-0.48,0.34-0.72c0.55-1.19,1.09-2.39,1.61-3.61c0-0.01,0.01-0.02,0.01-0.02c0.54-1.28,1.06-2.56,1.56-3.86
			c0.07-0.18,0.13-0.35,0.2-0.53c0.99-2.61,1.9-5.26,2.72-7.95c0.04-0.12,0.07-0.24,0.11-0.36c1.12-3.73,2.06-7.53,2.82-11.4
			c0.04-0.19,0.07-0.38,0.11-0.57c0.2-1.02,0.38-2.05,0.55-3.08c0.04-0.22,0.08-0.45,0.11-0.67c0.19-1.17,0.36-2.35,0.51-3.53
			c0-0.03,0.01-0.06,0.01-0.1c0.16-1.23,0.3-2.47,0.42-3.72c0.02-0.24,0.04-0.48,0.06-0.71c0.09-0.96,0.17-1.93,0.23-2.9
			c0.03-0.37,0.05-0.75,0.07-1.12c0.05-0.88,0.09-1.76,0.13-2.65c0.01-0.36,0.03-0.72,0.04-1.08c0.04-1.22,0.06-2.44,0.06-3.66
			C356.29,167.16,301.47,112.34,233.84,112.34z"/>
		<g>
			<path class="st9" d="M355.43,223.15c-4.85-28.97-30.02-51.05-60.37-51.05c-33.81,0-61.22,27.41-61.22,61.22
				c0-33.81-27.41-61.22-61.22-61.22c-33.81,0-61.22,27.41-61.22,61.22c0,10.76,1.39,21.19,4,31.13
				c16.31-7.78,40.26-12.54,72.23-2.31c10.71,3.43,22.31,8.53,34.84,15.77c64.91,37.54,106.11,14.32,129.83-13.47
				c2.6-9.94,3.99-20.36,3.99-31.11C356.29,229.85,355.98,226.46,355.43,223.15z"/>
			<path class="st9" d="M355.43,223.15c-4.85-28.97-30.02-51.05-60.37-51.05c-33.81,0-61.22,27.41-61.22,61.22
				c0-33.81-27.41-61.22-61.22-61.22c-33.81,0-61.22,27.41-61.22,61.22c0,10.76,1.39,21.19,4,31.13
				c16.31-7.78,40.26-12.54,72.23-2.31c10.71,3.43,22.31,8.53,34.84,15.77c64.91,37.54,106.11,14.32,129.83-13.47
				c2.6-9.94,3.99-20.36,3.99-31.11C356.29,229.85,355.98,226.46,355.43,223.15z"/>
		</g>
	</g>
</g>
<g id="레이어_2">
</g>
</svg>
